<svg width="1024" height="1024" viewBox="0 0 1024 1024" fill="none" xmlns="http://www.w3.org/2000/svg">
<rect width="1024" height="1024" fill="#FFDE00"/>
<rect x="160.855" y="97.2341" width="470" height="470" rx="80" transform="rotate(7.49655 160.855 97.2341)" fill="#DE2910"/>
<path d="M430.58 414.429C497.489 486.121 477.203 535.809 458.06 514.57C456.305 485.674 439.062 443.333 426.003 415.874L430.58 414.429ZM344.876 401.104L372.168 413.763C370.564 417.062 366.773 419.195 360.773 418.113C341.69 454.212 316.35 484.515 289.149 502.288L285.54 498.596C307.694 476.941 330.015 440.683 344.876 401.104ZM365.73 291.528L393.559 304.55C391.955 307.849 388.452 310.02 381.839 309.15C360.448 351.673 331.726 387.673 300.219 409.267L296.86 405.9C321.958 379.66 348.35 336.918 365.73 291.528ZM345.717 343.592L475.101 360.618L474.004 368.956L344.619 351.93L345.717 343.592ZM467.051 359.558L463.888 359.142L477.303 348.33L496.105 372.157C493.828 373.904 490.302 374.026 484.763 373.882C476.561 385.087 462.465 401.075 451.002 410.389L447.854 407.635C453.945 394.689 463.048 372.194 467.051 359.558ZM266.376 364.156L276.802 353.828L294.621 362.901C293.418 365.375 290.278 367.009 285.276 367.228L262.764 538.304C262.288 539.703 253.919 543.282 246.444 542.298L242.993 541.844L266.376 364.156ZM302.302 282.304L330.993 295.439C329.102 298.7 325.311 300.834 319.023 299.714C292.835 349.796 258.302 394.391 222.588 421.282L218.654 417.839C248.208 386.628 280.737 335.041 302.302 282.304ZM394.406 362.576L422.742 369.523C421.637 373.472 418.422 375.682 411.695 375.674L390.999 532.948C388.956 548.474 384.219 557.796 355.951 557.001C355.883 550.85 354.801 545.735 351.48 542.08C347.046 537.987 339.548 534.953 326.261 531.449L326.867 526.849C326.867 526.849 358.191 533.311 364.517 534.143C369.98 534.862 371.932 533.364 372.537 528.764L394.406 362.576Z" fill="white"/>
<path d="M319.839 257.106L320.262 253.894L333.402 254.292L337.209 254.793L349.41 257.73L348.988 260.942L319.839 257.106ZM329.595 258.39C330.703 252.726 332.576 239.417 333.64 231.327L334.595 224.069C335.66 215.979 336.324 210.015 336.75 204.019L326.358 202.046L326.75 199.072L345.714 196.605L347.119 197.879L346.136 211.79L343.396 232.611C342.332 240.701 340.697 254.042 340.184 259.784L329.595 258.39ZM360.29 262.43L360.713 259.217L373.734 259.599L377.661 260.116L389.862 263.053L389.439 266.265L360.29 262.43ZM370.046 263.713C371.036 258.034 372.877 244.962 373.973 236.634L375.789 222.833C377.323 211.174 373.81 206.596 366.91 205.688C361.556 204.984 353.447 206.821 343.628 215.212L343.074 211.145L344.264 211.302C354.358 201.737 363.472 198.7 371.8 199.796C382.151 201.158 387.508 208.278 385.394 224.339L383.61 237.902C382.514 246.23 381.029 259.349 380.516 265.091L370.046 263.713ZM398.735 267.488L399.157 264.276L412.417 264.69L416.105 265.175L428.544 268.143L428.121 271.355L398.735 267.488ZM408.61 268.788C409.599 263.108 411.59 249.815 412.655 241.724L413.594 234.586C414.659 226.496 415.235 220.278 415.78 214.298L405.254 212.428L405.661 209.335L425.799 207.144L427.086 208.402L424.672 224.908L422.292 242.993C421.227 251.083 419.593 264.424 419.079 270.166L408.61 268.788ZM409.785 172.478L426.883 191.552L420.458 190.706L441.908 176.705L443.545 178.978L426.256 196.311L419.951 195.481L407.496 174.234L409.785 172.478Z" fill="white"/>
<rect x="533" y="587.867" width="350" height="350" rx="80" transform="rotate(-5.55281 533 587.867)" fill="#DE2910"/>
<path d="M792.749 702.292L801.709 692.138L819.862 706.066C818.259 707.769 815.652 708.244 810.856 708.931C800.887 720.068 784.31 738.258 770.752 748.859L766.591 749.264C777.068 736.53 789.632 713.426 795.377 702.037L792.749 702.292ZM781.29 745.845C780.931 748.975 779.152 751.137 773.939 752.086L784.838 864.197C785.988 876.022 784.303 883.701 763.912 887.672C762.829 883.357 761.372 879.741 757.854 877.652C754.335 875.562 748.669 874.124 738.25 873.81L737.909 870.307C737.909 870.307 761.29 869.802 765.889 869.355C770.049 868.951 771.016 867.53 770.718 864.465L759.159 745.566L781.29 745.845ZM814.865 763.801C814.865 763.801 826.884 771.474 834.55 777.581C834.128 780.053 832.044 781.361 828.979 781.659L713.364 792.899L710.974 786.5L806.225 777.24L814.865 763.801ZM799.537 701.632L800.176 708.201L712.589 716.716L709.979 710.339L799.537 701.632ZM643.951 815.562C739.996 844.022 731.733 879.528 713.759 871.992C699.56 853.258 664.704 831.227 640.527 818.989L643.951 815.562ZM640.527 818.989C648.291 789.721 658.391 723.091 660.201 693.959L683.004 696.605C682.186 699.558 680.668 702.137 672.545 702.705L675.072 699.144C672.019 726.85 662.621 784.791 652.889 821.103L640.527 818.989ZM690.801 742.707L698.468 732.899L715.879 746.015C714.298 747.938 712.391 748.786 707.616 749.692C706.646 807.919 697.784 862.272 639.87 898.627L637.163 895.795C685.23 858.188 694.028 803.178 692.991 742.494L690.801 742.707ZM700.655 741.749L701.294 748.318L627.72 755.47L625.111 749.093L700.655 741.749Z" fill="white"/>
<path d="M660.139 667.079L659.957 665.198L667.476 663.693L669.706 663.476L677.026 663.538L677.209 665.419L660.139 667.079ZM665.852 666.523C665.667 663.165 664.978 655.355 664.517 650.618L661.029 614.737L654.864 614.985L654.681 613.104L665.416 609.95L666.522 610.475L667.37 621.364L668.921 637.319L669.072 638.149L670.23 650.062C670.691 654.8 671.519 662.596 672.053 665.92L665.852 666.523ZM683.967 664.762L683.784 662.881L691.165 661.39L693.394 661.173L700.784 661.228L700.967 663.109L683.967 664.762ZM689.541 664.22C689.425 660.856 688.749 653.185 688.275 648.308L687.489 640.226C686.826 633.398 684.087 631.273 680.116 631.659C676.841 631.978 672.608 634.007 668.14 640.138L666.586 637.898L668.119 637.749C672.407 631.213 677.103 628.155 682.119 627.667C688.25 627.071 692.302 630.404 693.223 639.88L693.988 647.753C694.462 652.63 695.277 660.287 695.811 663.611L689.541 664.22ZM716.545 662.65C711.041 663.185 706.619 660.38 706.05 654.527C705.528 649.163 708.457 645.291 717.39 641.68C721.183 640.186 725.527 638.568 729.208 637.366L729.37 639.038C725.772 640.372 721.84 641.88 718.82 643.369C713.177 646.098 711.17 649.317 711.535 653.08C711.962 657.469 714.82 659.371 718.721 658.992C721.787 658.694 724.348 656.828 729.191 650.941L730.137 654.155L728.464 654.317C724.605 659.475 721.77 662.142 716.545 662.65ZM735.14 660.772C731.03 661.171 728.725 658.442 727.965 653.522L726.204 635.407C725.452 627.674 722.817 625.89 717.313 626.426C714.596 626.69 712.086 627.637 709.12 629.684L712.003 627.504L711.353 633.124C711.249 635.666 710.076 636.624 708.404 636.786C706.802 636.942 705.606 636.214 705.101 634.646C705.87 628.804 710.763 624.882 718.636 624.117C726.718 623.331 730.965 626.505 731.812 635.214L733.485 652.423C733.905 656.742 735.002 657.902 736.953 657.712C738.137 657.597 738.863 657.104 739.919 655.665L741.142 656.672C739.839 659.19 737.858 660.508 735.14 660.772ZM707.074 606.463L719.372 615.043L715.54 615.416L725.885 604.634L727.115 605.71L719.573 617.837L715.88 618.196L706.004 607.762L707.074 606.463ZM762.851 658.148C753.585 659.049 744.88 653.425 743.661 640.884C742.442 628.343 750.172 621.051 759.16 620.177C768.147 619.303 777.208 624.963 778.427 637.504C779.646 650.045 772.048 657.254 762.851 658.148ZM762.641 655.988C769.539 655.318 773.22 649.052 772.163 638.183C771.107 627.315 766.274 621.736 759.377 622.407C752.479 623.077 748.812 629.482 749.868 640.351C750.925 651.22 755.744 656.659 762.641 655.988Z" fill="white"/>
</svg>
